<?xml version="1.0" encoding="utf-8"?>
<!-- Generator: Adobe Illustrator 22.0.1, SVG Export Plug-In . SVG Version: 6.00 Build 0)  -->
<svg version="1.1" id="Layer_1" xmlns="http://www.w3.org/2000/svg" xmlns:xlink="http://www.w3.org/1999/xlink" x="0px" y="0px"
	 viewBox="0 0 95.7 95.7" style="enable-background:new 0 0 95.7 95.7;" xml:space="preserve">
<style type="text/css">
	.st0{fill:#FFFFFF;}
	.st1{fill:#2F7775;}
</style>
<symbol  id="New_Symbol" viewBox="-47.9 -47.9 95.7 95.7">
	<g>
		<path class="st0" d="M-8-4.1h2.9c-0.1-2.4-0.8-4.3-2-5.6c-1.3-1.3-3-2-5.3-2c-2.3,0-4.1,0.9-5.4,2.6c-1.4,1.7-2,4.1-2,7.1v4.1
			c0,3,0.7,5.3,2.1,7c1.4,1.7,3.3,2.6,5.6,2.6c2.2,0,3.9-0.7,5.1-2c1.2-1.3,1.9-3.2,2-5.6H-8c-0.1,1.8-0.5,3.2-1.2,4
			c-0.6,0.8-1.6,1.2-3,1.2c-1.5,0-2.7-0.6-3.6-1.8c-0.8-1.2-1.3-3-1.3-5.3v-4.2c0-2.3,0.4-4.1,1.2-5.3c0.8-1.2,1.9-1.8,3.4-1.8
			c1.5,0,2.6,0.4,3.2,1.1C-8.5-7.4-8.1-6.1-8-4.1z"/>
		<polygon class="st0" points="19.9,11.4 15.3,-11.4 12.8,-11.4 9,5.2 8.7,6.6 8.5,5.2 4.5,-11.4 2,-11.4 -2.6,11.4 0.3,11.4 
			3.1,-4.2 3.4,-6.7 3.9,-4.5 7.5,11.4 9.9,11.4 13.4,-4.5 13.9,-6.8 14.2,-4.2 17,11.4 		"/>
		<path class="st1" d="M0,47.9c-26.4,0-47.9-21.5-47.9-47.9S-26.4-47.9,0-47.9S47.9-26.4,47.9,0S26.4,47.9,0,47.9z M0-41.9
			c-23.1,0-41.9,18.7-41.9,41.9S-23.1,41.9,0,41.9S41.9,23.1,41.9,0S23.1-41.9,0-41.9z"/>
	</g>
	<g>
		<path class="st1" d="M-9.2-8.1c-0.6-0.8-1.7-1.1-3.2-1.1c-1.5,0-2.6,0.6-3.4,1.8c-0.8,1.2-1.2,3-1.2,5.3v4.2
			c0,2.3,0.4,4.1,1.3,5.3c0.8,1.2,2,1.8,3.6,1.8c1.4,0,2.4-0.4,3-1.2c0.7-0.8,1.1-2.1,1.2-4h2.9c-0.1,2.5-0.8,4.3-2,5.6
			c-1.2,1.3-2.9,2-5.1,2c-2.4,0-4.3-0.9-5.6-2.6c-1.4-1.7-2.1-4.1-2.1-7V-2c0-3,0.7-5.3,2-7.1c1.3-1.7,3.1-2.6,5.4-2.6
			c2.3,0,4,0.7,5.3,2c1.2,1.3,1.9,3.2,2,5.6H-8C-8.1-6.1-8.5-7.4-9.2-8.1z"/>
		<path class="st1" d="M17,11.4L14.2-4.2l-0.3-2.6l-0.5,2.3L9.9,11.4H7.5L3.9-4.5L3.4-6.7L3.1-4.2L0.3,11.4h-2.8L2-11.4h2.6L8.5,5.2
			l0.2,1.3L9,5.2l3.8-16.6h2.6l4.5,22.8H17z"/>
	</g>
</symbol>
<use xlink:href="#New_Symbol"  width="95.7" height="95.7" id="XMLID_1_" x="-47.9" y="-47.9" transform="matrix(1 0 0 -1 47.86 47.86)" style="overflow:visible;"/>
</svg>
