<?xml version="1.0" encoding="utf-8"?>
<!-- Generator: Adobe Illustrator 21.0.0, SVG Export Plug-In . SVG Version: 6.00 Build 0)  -->
<svg version="1.1" id="Layer_1" xmlns="http://www.w3.org/2000/svg" xmlns:xlink="http://www.w3.org/1999/xlink" x="0px" y="0px"
	 viewBox="0 0 60 60" style="enable-background:new 0 0 60 60;" xml:space="preserve">
<path d="M30,0C13.4,0,0,13.4,0,30s13.4,30,30,30s30-13.4,30-30S46.6,0,30,0z M33.3,48.8c-1,0.9-2.2,1.3-3.6,1.3
	c-1.5,0-2.6-0.4-3.6-1.3c-1-0.9-1.4-2-1.4-3.3c0-1.3,0.5-2.4,1.4-3.3c1-0.9,2.2-1.3,3.6-1.3c1.4,0,2.6,0.4,3.6,1.3
	c1,0.9,1.4,1.9,1.4,3.3C34.7,46.9,34.3,48,33.3,48.8z M41.8,24.7c-0.6,1.2-1.5,2.5-2.9,3.8l-3.1,2.9C35,32.2,34.4,33,34,33.9
	c-0.3,0.9-0.5,2-0.6,3.4h-7.7c0-2.6,0.3-4.7,0.9-6.2c0.6-1.5,1.6-2.8,2.9-4c1.3-1.1,2.3-2.1,3-3.1c0.7-0.9,1-2,1-3.1
	c0-2.7-1.2-4.1-3.5-4.1c-1.1,0-2,0.4-2.6,1.2c-0.7,0.8-1,1.9-1.1,3.2h-9.1c0-3.6,1.2-6.4,3.4-8.4c2.2-2,5.4-3,9.4-3
	c4,0,7.1,0.9,9.3,2.8c2.2,1.9,3.3,4.5,3.3,7.9C42.7,22.1,42.5,23.4,41.8,24.7z"/>
</svg>
