<?xml version="1.0" encoding="utf-8"?>
<!-- Generator: Adobe Illustrator 21.0.0, SVG Export Plug-In . SVG Version: 6.00 Build 0)  -->
<svg version="1.1" id="Layer_1" xmlns="http://www.w3.org/2000/svg" xmlns:xlink="http://www.w3.org/1999/xlink" x="0px" y="0px"
	 viewBox="0 0 73.3 33.6" style="enable-background:new 0 0 73.3 33.6;" xml:space="preserve">
<style type="text/css">
	.st0{fill:#FFFFFF;}
</style>
<g>
	<path id="XMLID_189_" class="st0" d="M21.7,0.3c10.8,0,21.6,0,32.2,0c0.2,0.2,0.2,0.4,0.2,0.7c0,5.9,0,11.9,0,17.9
		c0,2.1-0.8,3.8-2,5.4c-1.6,2.2-3.5,3.9-5.6,5.3c-2.6,1.9-5.5,3.4-8.5,4.6c-2.7-1-5.2-2.5-7.6-4.1c-2.2-1.5-4.2-3.1-5.9-5
		c-0.9-1-1.7-2.3-2.3-3.6c-0.3-0.6-0.4-1.3-0.4-2C21.7,13.2,21.7,6.8,21.7,0.3z M52.7,9.2c-0.7,0-1.3,0.2-1.7,0.5
		c-1.1,0.7-2.4,0.7-3.5-0.1c-0.5-0.4-1.1-0.5-1.9-0.5s-1.5,0.2-2.1,0.6c-1.3,0.6-2.4,0.7-3.5,0C38.8,9,37.4,9,36.2,9.6
		c-1.4,0.7-2.7,0.8-4.1,0c-0.8-0.5-1.7-0.5-2.5-0.4c-0.4,0.1-0.9,0.3-1.4,0.5c-1.3,0.7-2.5,0.6-3.6-0.1c-0.5-0.3-1-0.4-1.6-0.4
		c0,0.2-0.1,0.3-0.1,0.4c0,3.1,0,6.4,0,9.5c0,1.5,0.6,2.6,1.6,3.8c0.4,0.4,0.8,0.6,1.5,0.7c0.7,0,1.5,0,2.1-0.4
		c1.5-0.7,2.8-0.9,4.3,0c0.6,0.4,1.4,0.4,2.1,0.4c0.5,0,0.9-0.3,1.4-0.5c1.4-0.6,2.7-0.8,4.1,0c0.1,0,0.1,0.1,0.2,0.1
		c0.9,0.4,1.9,0.5,2.9,0c0.5-0.2,1-0.3,1.6-0.6c0.8-0.4,1.6-0.2,2.4,0.1c0.3,0.1,0.6,0.3,0.9,0.4c1,0.4,2.2,0.6,3-0.3
		c1-1,1.8-2.3,1.8-3.8C52.8,16,52.7,12.6,52.7,9.2z M36.2,3.6c-0.6,0.5-1,1-1.5,1.5c-0.6,0-1.1,0-1.8,0c-0.4-0.5-0.8-1-1.4-1.6
		C31,4,30.4,4.5,29.9,5c-0.6,0-1.3,0-1.9,0c-0.6-0.4-0.9-1-1.6-1.4c-0.1,1-0.1,1.9,0,2.8c3.2,0,6.5,0,9.7,0
		C36.2,5.5,36.2,4.6,36.2,3.6z M49.1,3.9C49,3.8,49,3.8,48.9,3.7c-0.4,0.5-0.7,0.9-1,1.4c-0.7,0-1.3,0-2,0c-0.4-0.4-0.8-1-1.5-1.8
		C43.9,4,43.5,4.6,43.2,5c-0.8,0-1.5,0-2.1,0c-0.4-0.4-0.8-0.8-1.4-1.4c0,1,0,2,0.1,2.8c3.2,0,6.3,0,9.4,0
		C49.1,5.5,49.1,4.7,49.1,3.9z M32.9,28.5c3.2,0,6.5,0,9.7,0c0-0.8,0.1-1.7-0.1-2.6c-0.6,0.4-0.8,1-1.4,1.3c-0.5,0-1,0-1.7,0
		c-0.5-0.5-1-1-1.7-1.6c-0.5,0.5-1.1,1-1.7,1.6c-0.6,0-1.1,0-1.7,0c-0.6-0.3-0.9-1-1.6-1.3c-0.1,0.1-0.1,0.2-0.1,0.2
		C32.9,26.9,32.9,27.6,32.9,28.5z"/>
	<path id="XMLID_159_" class="st0" d="M67.4,21.2c0,0.2,0.3,0.3,0.2,0.6c-4.1,0-8.1,0-12.2,0C55.1,21,55,16,55.2,11.4
		c0.5-0.5,1.3-0.8,2-1.1c0.4-0.2,0.6-0.4,0.5-0.9c-0.8-0.5-1.9-0.9-2.5-1.8c0-0.1,0-0.3,0-0.4c0-1.8,0-3.5,0-5.3
		c2.3-2.4,6.6-3.5,9.6,0c4-2,8.6-0.4,10.1,4.2c-0.8-0.1-1.4-0.8-2.1-1c-0.7-0.1-1.5-0.4-2.3-0.5c-0.4,0.2-0.6,0.8-1.3,0.7
		c-0.4,0-0.8-0.3-1.2-0.6c-0.3,0.3-0.1,0.6-0.2,0.9c-0.1,0.2-0.2,0.5-0.5,0.9c0.7-0.3,1.3-0.8,2-0.5c0.6,0.3,0.9,0.7,1,1.4
		c1.2,0.1,2.4-0.2,3.5-0.5c0.2,0,0.3,0.1,0.3,0.3c-1,1.4-2.6,2.1-4.2,2.7c0.2,0.5,0.8,0.6,1.3,0.8c1.3,0.9,2.4,2.1,2.8,3.6
		c0.7,2.6-0.4,5.3-3.1,6.4C69.8,21.2,68.6,21.2,67.4,21.2c0-0.1-0.1-0.1-0.1-0.2l-0.1,0.1C67.2,21.2,67.3,21.2,67.4,21.2z M58.1,4.5
		c0.6,1.8,1.8,2.5,3,2.3c1-0.2,1.9-1.3,1.9-2.5c0-1.1-0.8-2-2-2.2C59.6,2,58.6,2.7,58.1,4.5z M60.4,13.9c0.5,1.1,1,1.4,2,0.8
		c0.7-0.5,1.3-1.2,1.4-2.3C62.4,12.6,61.1,12.5,60.4,13.9z M67.1,14.9c0-1,0-1-0.7-1.9c-0.2,1-0.7,1.8-1.4,2.6
		C65.9,15.8,66.6,15.9,67.1,14.9z M64,8.2c-0.3,0.4-0.8,0.5-1.4,0.8c0.9,0.3,1.7-0.2,2.4-0.2C64.6,8.8,64.4,8.4,64,8.2z"/>
	<path id="XMLID_157_" class="st0" d="M15.8,8.8c0.8,0.6,1.5,1.3,2.6,1.4c0.6-0.1,1.4-0.5,2.1-1.4c0,4.4,0,8.6,0,12.9
		c-6.5,0-12.9,0-19.5,0c0.3-0.8,0.6-1.6,1.1-2.3c-0.3-0.2-0.5-0.4-0.8-0.7c1.1-1.6,2.4-2.8,4.2-3.5c0.2-0.3-0.2-0.4-0.2-0.8
		c0.2-0.4,0.8-0.5,1.4-0.6c1-0.1,2.1-0.3,3.2-0.3s2.2-0.2,3.3-0.4c1.6-0.4,2.3-1.1,2.5-2.7C15.8,9.8,15.7,9.4,15.8,8.8z"/>
	<path id="XMLID_151_" class="st0" d="M16.8,4.8c-0.5-0.2-0.6,0.3-0.8,0.6c-0.4,1-0.6,2.1-0.8,3.2c-0.1,0.5-0.1,1-0.2,1.6
		c-0.2,1.3-1,1.9-2.1,2.2c-1.4,0.3-2.7,0.4-4.1,0.5c-1.6,0.1-3.1,0.3-4.6,0.5c-0.4,0.1-0.7,0.4-1.4,0.2c1.1-1.1,1.9-2.3,1.9-3.8
		c0.2-0.1,0.4-0.2,0.6-0.3c0.4,0.2,0,0.6,0.3,0.9c0.9,0.7,0.9,0.7,3,0.5c1-0.8,1.1-1.1,0.8-2.4C9.3,8,9.2,7.3,8.8,6.7
		C8.2,5.5,7.2,5.5,6.4,6.6C6.3,7,6.6,7.2,6.6,7.5c0.7,0.2,1.2,0.4,1.9,0.6C8.7,8.3,8.9,8.4,9,8.5c0.3,0.4,0.2,0.9,0.1,1.3
		C9,10,8.7,10,8.5,10.2C8,10,7.4,9.8,6.9,9.5C6.2,9.1,5.3,9.1,4.6,9.3C4.1,9.5,3.5,9.5,3,9.6C1.4,10-0.8,9-1.5,7.6
		c0.1-0.2,0.3-0.1,0.4,0c1.5,0.8,3,0.8,4.5,0.3c0.7-0.3,1.5-0.2,2.2-0.6c-0.4-0.6-1-1.1-1.5-1.8C3.6,4.8,3.2,4,3.7,3
		c0.2-0.4-0.1-0.9,0.2-1.6c0.6-0.8,1.9-0.9,2.9-1.1C9.4-0.1,12,0,14.6,0c1.9,0,3.6,0.1,5.5-0.7c-0.2,1-0.7,1.7-1.5,2.1
		c-0.7,0.5-1.6,0.5-2.6,0.5c0.8,0.8,2.6,0.3,4-0.7c0.3,1.6,0,2.1-1.6,2.5c-0.4,0.1-0.9,0.3-1.4,0.4C16.8,4.2,16.6,4.4,16.8,4.8
		L16.8,4.8z M7.1,2.2c0,0.1,0.1,0.2,0.1,0.3c0.9-0.3,2-0.2,3-0.3C9.1,1.4,9,1.4,8,1.3C7.6,1.5,7.3,1.8,7.1,2.2z"/>
	<path id="XMLID_144_" class="st0" d="M16.7,4.8c1-0.3,2.2-0.7,3.2-1c1,1.6,0.8,4-0.5,5.1c-0.5,0.4-1.1,0.6-1.7,0.5
		C16.9,9,16.4,8.5,16,7.6C15.9,6.6,16.5,5.8,16.7,4.8L16.7,4.8z"/>
	<path id="XMLID_142_" class="st0" d="M74.2,7.2c0-0.2-0.1-0.3-0.3-0.3c0.2-0.3,0.4-0.3,0.7-0.2C74.6,6.9,74.4,7.1,74.2,7.2z"/>
	<path id="XMLID_109_" class="st0" d="M30,21.7c0-3.5,0-7,0-10.5c5.3,0,10.5,0,15.7,0c0.2,0.9,0.3,7.6,0.1,10.5
		C40.7,21.7,35.3,21.7,30,21.7z M36.9,13.2c-0.3-0.3-0.4-0.7-0.7-0.8c-0.4,0.1-0.3,0.7-0.7,0.8c-0.4,0.1-0.8-0.1-1.1,0.2
		c0,0.4,0.5,0.6,0.4,1.1c-0.1,0.2-0.4,0.5-0.4,0.9c0.3,0.2,0.7,0,1.4,0.2c0.2,0.1,0.1,0.6,0.5,0.7c0.2-0.3,0.3-0.6,0.7-0.9
		c0.3,0,0.7,0,1.1-0.1c-0.2-0.4-0.6-0.7-0.5-1.4c0.1-0.2,0.3-0.5,0.5-0.9C37.6,13.2,37.2,13.2,36.9,13.2z M31.7,19.5
		c0.5,0.2,0.9,0,1.4,0.3c0.3,0.1,0.2,0.7,0.6,0.8c0.3-0.2,0.3-0.7,0.9-0.9c0.2-0.1,0.6,0.2,0.9-0.1c-0.1-0.3-0.5-0.5-0.4-0.9
		c0.1-0.3,0.3-0.7,0.5-1c-0.4-0.3-0.9,0-1.4-0.2c-0.2-0.2-0.3-0.5-0.5-0.7c-0.4,0.1-0.3,0.6-0.6,0.7c-0.4,0.2-0.9-0.1-1.4,0.2
		C32.1,18.2,32.5,18.9,31.7,19.5z M41.8,17.5c-0.5-0.3-1,0-1.5-0.2c-0.2-0.2-0.2-0.5-0.5-0.7c-0.3,0.1-0.3,0.6-0.7,0.8
		c-0.4,0.1-0.8-0.1-1.3,0.1c0,0.5,0.5,0.8,0.5,1.4c0,0.3-0.4,0.5-0.4,0.8c0.4,0.2,0.8-0.1,1.3,0.2c0.3,0.2,0.2,0.6,0.6,0.8
		c0.4-0.2,0.3-0.7,0.5-0.8c0.5-0.2,0.9,0,1.3-0.3C40.9,18.9,41.3,18.2,41.8,17.5z M44.3,13.2c-0.5,0-0.9,0-1.3-0.1
		c-0.3-0.3-0.3-0.7-0.7-0.8c-0.3,0.2-0.3,0.6-0.6,0.7c-0.3,0.1-0.7-0.1-1.1,0.2c0,0.4,0.4,0.6,0.5,0.9c0,0.5-0.5,0.7-0.4,1.3
		c0.4,0,0.8,0,0.9,0c0.5,0.3,0.5,0.8,0.9,0.9c0.2-0.3,0.3-0.7,0.4-0.8c0.5-0.3,0.9,0,1.3-0.3c-0.2-0.3-0.3-0.7-0.5-1
		C43.9,14,44,13.7,44.3,13.2z"/>
	<path id="XMLID_102_" class="st0" d="M59.5,4.5c0-0.5,0.5-1,1-1c0.6,0,1,0.5,1,1c0,0.6-0.5,1-1,1C60,5.5,59.5,5,59.5,4.5z"/>
</g>
</svg>
