<?xml version="1.0" encoding="utf-8"?>
<!-- Generator: Adobe Illustrator 20.1.0, SVG Export Plug-In . SVG Version: 6.00 Build 0)  -->
<svg version="1.1" id="Layer_1" xmlns="http://www.w3.org/2000/svg" xmlns:xlink="http://www.w3.org/1999/xlink" x="0px" y="0px"
	 width="73.3px" height="33.6px" viewBox="0 0 73.3 33.6" style="enable-background:new 0 0 73.3 33.6;" xml:space="preserve">
<style type="text/css">
	.st0{fill:#FFFFFF;}
</style>
<g>
	<path id="XMLID_189_" class="st0" d="M22.3,1c10.4,0,20.7,0,30.9,0c0.2,0.2,0.2,0.4,0.2,0.7c0,5.7,0,11.4,0,17.2
		c0,2-0.8,3.6-1.9,5.2c-1.5,2.1-3.4,3.7-5.4,5.1c-2.5,1.8-5.3,3.3-8.2,4.4c-2.6-1-5-2.4-7.3-3.9c-2.1-1.4-4-3-5.7-4.8
		c-0.9-1-1.6-2.2-2.2-3.5c-0.3-0.6-0.4-1.2-0.4-1.9C22.3,13.3,22.3,7.2,22.3,1z M52.1,9.5c-0.7,0-1.2,0.2-1.6,0.5
		c-1.1,0.7-2.3,0.7-3.4-0.1c-0.5-0.4-1.1-0.5-1.8-0.5c-0.7,0-1.4,0.2-2,0.6c-1.2,0.6-2.3,0.7-3.4,0c-1.2-0.7-2.5-0.7-3.7-0.1
		c-1.3,0.7-2.6,0.8-3.9,0c-0.8-0.5-1.6-0.5-2.4-0.4c-0.4,0.1-0.9,0.3-1.3,0.5c-1.2,0.7-2.4,0.6-3.5-0.1c-0.5-0.3-1-0.4-1.5-0.4
		c0,0.2-0.1,0.3-0.1,0.4c0,3,0,6.1,0,9.1c0,1.4,0.6,2.5,1.5,3.6c0.4,0.4,0.8,0.6,1.4,0.7c0.7,0,1.4,0,2-0.4c1.4-0.7,2.7-0.9,4.1,0
		c0.6,0.4,1.3,0.4,2,0.4c0.5,0,0.9-0.3,1.3-0.5c1.3-0.6,2.6-0.8,3.9,0c0.1,0,0.1,0.1,0.2,0.1c0.9,0.4,1.8,0.5,2.8,0
		c0.5-0.2,1-0.3,1.5-0.6c0.8-0.4,1.5-0.2,2.3,0.1c0.3,0.1,0.6,0.3,0.9,0.4c1,0.4,2.1,0.6,2.9-0.3c1-1,1.7-2.2,1.7-3.6
		C52.2,16,52.1,12.8,52.1,9.5z M36.2,4.1c-0.6,0.5-1,1-1.4,1.4c-0.6,0-1.1,0-1.7,0c-0.4-0.5-0.8-1-1.3-1.5c-0.6,0.5-1.1,1-1.6,1.5
		c-0.6,0-1.2,0-1.8,0c-0.6-0.4-0.9-1-1.5-1.3c-0.1,1-0.1,1.8,0,2.7c3.1,0,6.2,0,9.3,0C36.2,6,36.2,5.1,36.2,4.1z M48.6,4.4
		c-0.1-0.1-0.1-0.1-0.2-0.2c-0.4,0.5-0.7,0.9-1,1.3c-0.7,0-1.2,0-1.9,0c-0.4-0.4-0.8-1-1.4-1.7c-0.5,0.7-0.9,1.3-1.2,1.7
		c-0.8,0-1.4,0-2,0c-0.4-0.4-0.8-0.8-1.3-1.3c0,1,0,1.9,0.1,2.7c3.1,0,6,0,9,0C48.6,6,48.6,5.2,48.6,4.4z M33.1,28
		c3.1,0,6.2,0,9.3,0c0-0.8,0.1-1.6-0.1-2.5c-0.6,0.4-0.8,1-1.3,1.2c-0.5,0-1,0-1.6,0c-0.5-0.5-1-1-1.6-1.5c-0.5,0.5-1.1,1-1.6,1.5
		c-0.6,0-1.1,0-1.6,0c-0.6-0.3-0.9-1-1.5-1.2c-0.1,0.1-0.1,0.2-0.1,0.2C33.1,26.5,33.1,27.2,33.1,28z"/>
	<path id="XMLID_159_" class="st0" d="M66.2,21c0,0.2,0.3,0.3,0.2,0.6c-3.9,0-7.8,0-11.7,0c-0.3-0.8-0.4-5.6-0.2-10
		c0.5-0.5,1.2-0.8,1.9-1.1c0.4-0.2,0.6-0.4,0.5-0.9c-0.8-0.5-1.8-0.9-2.4-1.7c0-0.1,0-0.3,0-0.4c0-1.7,0-3.4,0-5.1
		c2.2-2.3,6.3-3.4,9.2,0c3.8-1.9,8.3-0.4,9.7,4c-0.8-0.1-1.3-0.8-2-1C70.7,5.3,70,5,69.2,4.9c-0.4,0.2-0.6,0.8-1.2,0.7
		c-0.4,0-0.8-0.3-1.2-0.6c-0.3,0.3-0.1,0.6-0.2,0.9c-0.1,0.2-0.2,0.5-0.5,0.9c0.7-0.3,1.2-0.8,1.9-0.5c0.6,0.3,0.9,0.7,1,1.3
		c1.2,0.1,2.3-0.2,3.4-0.5c0.2,0,0.3,0.1,0.3,0.3c-1,1.3-2.5,2-4,2.6c0.2,0.5,0.8,0.6,1.2,0.8c1.2,0.9,2.3,2,2.7,3.5
		c0.7,2.5-0.4,5.1-3,6.1C68.5,21,67.3,21,66.2,21c0-0.1-0.1-0.1-0.1-0.2c0,0-0.1,0.1-0.1,0.1C66,21,66.1,21,66.2,21z M57.2,5
		c0.6,1.7,1.7,2.4,2.9,2.2c1-0.2,1.8-1.2,1.8-2.4c0-1.1-0.8-1.9-1.9-2.1C58.7,2.6,57.7,3.3,57.2,5z M59.5,14c0.5,1.1,1,1.3,1.9,0.8
		c0.7-0.5,1.2-1.2,1.3-2.2C61.4,12.8,60.1,12.7,59.5,14z M65.9,15c0-1,0-1-0.7-1.8c-0.2,1-0.7,1.7-1.3,2.5
		C64.7,15.8,65.4,15.9,65.9,15z M62.9,8.5c-0.3,0.4-0.8,0.5-1.3,0.8c0.9,0.3,1.6-0.2,2.3-0.2C63.5,9.1,63.3,8.7,62.9,8.5z"/>
	<path id="XMLID_157_" class="st0" d="M16.6,9.1c0.8,0.6,1.4,1.2,2.5,1.3c0.6-0.1,1.3-0.5,2-1.3c0,4.2,0,8.3,0,12.4
		c-6.2,0-12.4,0-18.7,0C2.7,20.7,3,20,3.5,19.3c-0.3-0.2-0.5-0.4-0.8-0.7c1.1-1.5,2.3-2.7,4-3.4c0.2-0.3-0.2-0.4-0.2-0.8
		c0.2-0.4,0.8-0.5,1.3-0.6c1-0.1,2-0.3,3.1-0.3c1.1,0,2.1-0.2,3.2-0.4c1.5-0.4,2.2-1.1,2.4-2.6C16.6,10.1,16.5,9.7,16.6,9.1z"/>
	<path id="XMLID_151_" class="st0" d="M17.6,5.3c-0.5-0.2-0.6,0.3-0.8,0.6c-0.4,1-0.6,2-0.8,3.1c-0.1,0.5-0.1,1-0.2,1.5
		c-0.2,1.2-1,1.8-2,2.1c-1.3,0.3-2.6,0.4-3.9,0.5c-1.5,0.1-3,0.3-4.4,0.5c-0.4,0.1-0.7,0.4-1.3,0.2C5.3,12.7,6,11.6,6,10.2
		c0.2-0.1,0.4-0.2,0.6-0.3c0.4,0.2,0,0.6,0.3,0.9c0.9,0.7,0.9,0.7,2.9,0.5c1-0.8,1.1-1.1,0.8-2.3c-0.2-0.6-0.3-1.3-0.7-1.9
		C9.3,6,8.4,6,7.6,7C7.5,7.4,7.8,7.6,7.8,7.9c0.7,0.2,1.2,0.4,1.8,0.6c0.2,0.1,0.4,0.2,0.5,0.3c0.3,0.4,0.2,0.9,0.1,1.2
		c-0.1,0.3-0.4,0.3-0.6,0.5c-0.5-0.2-1-0.4-1.5-0.7C7.4,9.4,6.6,9.4,5.9,9.6C5.4,9.8,4.8,9.8,4.3,9.9C2.8,10.3,0.7,9.3,0,8
		c0.1-0.2,0.3-0.1,0.4,0c1.4,0.8,2.9,0.8,4.3,0.3C5.4,8,6.1,8.1,6.8,7.7C6.4,7.1,5.8,6.6,5.4,6C4.9,5.3,4.5,4.5,5,3.6
		c0.2-0.4-0.1-0.9,0.2-1.5C5.8,1.3,7,1.2,8,1c2.5-0.4,5-0.3,7.5-0.3c1.8,0,3.5,0.1,5.3-0.7c-0.2,1-0.7,1.6-1.4,2
		c-0.7,0.5-1.5,0.5-2.5,0.5c0.8,0.8,2.5,0.3,3.8-0.7c0.3,1.5,0,2-1.5,2.4c-0.4,0.1-0.9,0.3-1.3,0.4C17.6,4.7,17.4,4.9,17.6,5.3
		L17.6,5.3z M8.3,2.8c0,0.1,0.1,0.2,0.1,0.3c0.9-0.3,1.9-0.2,2.9-0.3c-1.1-0.8-1.2-0.8-2.2-0.9C8.8,2.1,8.5,2.4,8.3,2.8z"/>
	<path id="XMLID_144_" class="st0" d="M17.5,5.3c1-0.3,2.1-0.7,3.1-1c1,1.5,0.8,3.8-0.5,4.9c-0.5,0.4-1.1,0.6-1.6,0.5
		c-0.8-0.4-1.3-0.9-1.7-1.7C16.7,7,17.3,6.2,17.5,5.3L17.5,5.3z"/>
	<path id="XMLID_142_" class="st0" d="M72.7,7.6c0-0.2-0.1-0.3-0.3-0.3C72.6,7,72.8,7,73.1,7.1C73.1,7.3,72.9,7.5,72.7,7.6z"/>
	<path id="XMLID_109_" class="st0" d="M30.3,21.5c0-3.4,0-6.7,0-10.1c5.1,0,10.1,0,15.1,0c0.2,0.9,0.3,7.3,0.1,10.1
		C40.5,21.5,35.4,21.5,30.3,21.5z M36.9,13.3c-0.3-0.3-0.4-0.7-0.7-0.8c-0.4,0.1-0.3,0.7-0.7,0.8c-0.4,0.1-0.8-0.1-1.1,0.2
		c0,0.4,0.5,0.6,0.4,1.1c-0.1,0.2-0.4,0.5-0.4,0.9c0.3,0.2,0.7,0,1.3,0.2c0.2,0.1,0.1,0.6,0.5,0.7c0.2-0.3,0.3-0.6,0.7-0.9
		c0.3,0,0.7,0,1.1-0.1c-0.2-0.4-0.6-0.7-0.5-1.3c0.1-0.2,0.3-0.5,0.5-0.9C37.6,13.3,37.2,13.3,36.9,13.3z M31.9,19.4
		c0.5,0.2,0.9,0,1.3,0.3c0.3,0.1,0.2,0.7,0.6,0.8c0.3-0.2,0.3-0.7,0.9-0.9c0.2-0.1,0.6,0.2,0.9-0.1c-0.1-0.3-0.5-0.5-0.4-0.9
		c0.1-0.3,0.3-0.7,0.5-1c-0.4-0.3-0.9,0-1.3-0.2c-0.2-0.2-0.3-0.5-0.5-0.7c-0.4,0.1-0.3,0.6-0.6,0.7c-0.4,0.2-0.9-0.1-1.3,0.2
		C32.3,18.1,32.7,18.8,31.9,19.4z M41.6,17.5c-0.5-0.3-1,0-1.4-0.2c-0.2-0.2-0.2-0.5-0.5-0.7c-0.3,0.1-0.3,0.6-0.7,0.8
		c-0.4,0.1-0.8-0.1-1.2,0.1c0,0.5,0.5,0.8,0.5,1.3c0,0.3-0.4,0.5-0.4,0.8c0.4,0.2,0.8-0.1,1.2,0.2c0.3,0.2,0.2,0.6,0.6,0.8
		c0.4-0.2,0.3-0.7,0.5-0.8c0.5-0.2,0.9,0,1.2-0.3C40.7,18.8,41.1,18.1,41.6,17.5z M44,13.3c-0.5,0-0.9,0-1.2-0.1
		c-0.3-0.3-0.3-0.7-0.7-0.8c-0.3,0.2-0.3,0.6-0.6,0.7c-0.3,0.1-0.7-0.1-1.1,0.2c0,0.4,0.4,0.6,0.5,0.9c0,0.5-0.5,0.7-0.4,1.2
		c0.4,0,0.8,0,0.9,0c0.5,0.3,0.5,0.8,0.9,0.9c0.2-0.3,0.3-0.7,0.4-0.8c0.5-0.3,0.9,0,1.2-0.3c-0.2-0.3-0.3-0.7-0.5-1
		C43.6,14.1,43.7,13.8,44,13.3z"/>
	<path id="XMLID_102_" class="st0" d="M58.6,5c0-0.5,0.5-1,1-1c0.6,0,1,0.5,1,1c0,0.6-0.5,1-1,1C59.1,6,58.6,5.5,58.6,5z"/>
</g>
</svg>
